<svg xmlns="http://www.w3.org/2000/svg" width="128" height="128" viewBox="0 0 128 128">
  <!-- Background rounded square -->
  <rect width="128" height="128" rx="22" ry="22" fill="url(#bg)"/>

  <!-- Gradient definitions -->
  <defs>
    <linearGradient id="bg" x1="0%" y1="0%" x2="100%" y2="100%">
      <stop offset="0%" style="stop-color:#0078d4"/>
      <stop offset="100%" style="stop-color:#005a9e"/>
    </linearGradient>
  </defs>

  <!-- Left column (Source env) -->
  <rect x="18" y="28" width="36" height="7" rx="3" fill="white" opacity="0.95"/>
  <rect x="18" y="42" width="36" height="5" rx="2" fill="white" opacity="0.55"/>
  <rect x="18" y="52" width="36" height="5" rx="2" fill="white" opacity="0.55"/>
  <rect x="18" y="62" width="36" height="5" rx="2" fill="white" opacity="0.55"/>
  <rect x="18" y="72" width="36" height="5" rx="2" fill="white" opacity="0.55"/>
  <rect x="18" y="82" width="36" height="5" rx="2" fill="white" opacity="0.55"/>
  <rect x="18" y="92" width="28" height="5" rx="2" fill="white" opacity="0.35"/>

  <!-- Right column (Target env) -->
  <rect x="74" y="28" width="36" height="7" rx="3" fill="white" opacity="0.95"/>
  <rect x="74" y="42" width="36" height="5" rx="2" fill="white" opacity="0.55"/>
  <rect x="74" y="52" width="36" height="5" rx="2" fill="#7dd3fc" opacity="0.85"/>
  <rect x="74" y="62" width="36" height="5" rx="2" fill="white" opacity="0.55"/>
  <rect x="74" y="72" width="36" height="5" rx="2" fill="#fca5a5" opacity="0.85"/>
  <rect x="74" y="82" width="36" height="5" rx="2" fill="white" opacity="0.55"/>
  <rect x="74" y="92" width="28" height="5" rx="2" fill="white" opacity="0.35"/>

  <!-- Center diff arrow -->
  <line x1="57" y1="64" x2="71" y2="64" stroke="white" stroke-width="2.5" stroke-linecap="round"/>
  <polygon points="69,60 75,64 69,68" fill="white"/>
  <polygon points="59,60 53,64 59,68" fill="white"/>
</svg>
